<svg width="280" height="216" viewBox="0 0 280 216" fill="none" xmlns="http://www.w3.org/2000/svg">
<rect width="280" height="216" fill="white"/>
<g clip-path="url(#clip0_118_930)">
<rect x="40" y="8" width="200" height="200" rx="100" fill="url(#paint0_linear_118_930)"/>
<path d="M160.667 124V132C160.667 142.667 176 147.333 176 147.333C176 147.333 158.333 160.667 140 160.667C121.667 160.667 104 147.333 104 147.333C104 147.333 119.454 142.667 119.333 132C119.213 121.333 119.293 115.067 119.213 96.792C109.658 84.4073 110.271 76.0953 115.496 70.25C133 50.6667 180.667 57.3333 180.667 57.3333C180.667 57.3333 185.115 105.329 175 119.333C170.667 125.333 160.667 124 160.667 124Z" fill="url(#paint1_linear_118_930)"/>
<g style="mix-blend-mode:multiply">
<path d="M160.667 124C146 122.333 137.333 116 137.333 116C142.805 124.095 151.144 129.813 160.667 132V124Z" fill="#FFDBC9"/>
</g>
<path d="M210 167.539C216.347 180.443 220 210.205 220 210.205H60C60 210.205 63.6547 180.44 70 167.539C76.3453 154.637 113.4 142.671 113.4 142.671C120.542 157.333 159.739 157.333 166.581 142.667C166.581 142.667 203.653 154.634 210 167.539Z" fill="url(#paint2_linear_118_930)"/>
<path d="M137.333 193.333C137.333 192.806 137.49 192.29 137.783 191.852C138.076 191.413 138.492 191.071 138.979 190.87C139.467 190.668 140.003 190.615 140.52 190.718C141.037 190.821 141.513 191.075 141.886 191.448C142.259 191.821 142.513 192.296 142.615 192.813C142.718 193.33 142.665 193.867 142.464 194.354C142.262 194.841 141.92 195.258 141.481 195.551C141.043 195.844 140.527 196 140 196C139.293 196 138.614 195.719 138.114 195.219C137.614 194.719 137.333 194.041 137.333 193.333ZM137.333 180C137.333 179.473 137.49 178.957 137.783 178.518C138.076 178.08 138.492 177.738 138.979 177.536C139.467 177.334 140.003 177.282 140.52 177.385C141.037 177.487 141.513 177.741 141.886 178.114C142.259 178.487 142.513 178.962 142.615 179.48C142.718 179.997 142.665 180.533 142.464 181.02C142.262 181.508 141.92 181.924 141.481 182.217C141.043 182.51 140.527 182.667 140 182.667C139.293 182.667 138.614 182.386 138.114 181.886C137.614 181.386 137.333 180.707 137.333 180ZM137.333 166.667C137.333 166.139 137.49 165.624 137.783 165.185C138.076 164.747 138.492 164.405 138.979 164.203C139.467 164.001 140.003 163.948 140.52 164.051C141.037 164.154 141.513 164.408 141.886 164.781C142.259 165.154 142.513 165.629 142.615 166.146C142.718 166.664 142.665 167.2 142.464 167.687C142.262 168.174 141.92 168.591 141.481 168.884C141.043 169.177 140.527 169.333 140 169.333C139.293 169.333 138.614 169.052 138.114 168.552C137.614 168.052 137.333 167.374 137.333 166.667Z" fill="white"/>
<path d="M127.437 76.806C125.317 74.9853 122.741 73.7593 119.099 75.6513C110.467 80.1333 117 97.3333 124.667 97.3333C126.667 97.3333 127.661 103.615 118.757 108C118.757 101 108.09 83.6666 107.157 67.8853C96.4233 63.8886 99.09 47.8973 106.459 47.8973C105.283 33.2386 128.757 25.6666 137.846 34.0793C147.09 23 170.423 28.6666 171.832 38.2786C187.877 29.714 198.423 54.3333 183.4 63.8906C177.218 67.824 162.757 69.3206 141.881 69.3206C138.73 69.3206 136.965 70.1033 137.846 74C139.552 81.5506 135.591 86.3066 127.437 76.806Z" fill="url(#paint3_linear_118_930)"/>
</g>
<defs>
<linearGradient id="paint0_linear_118_930" x1="140" y1="8" x2="140" y2="208" gradientUnits="userSpaceOnUse">
<stop stop-color="#1D0024"/>
<stop offset="1" stop-color="#100014"/>
</linearGradient>
<linearGradient id="paint1_linear_118_930" x1="142.82" y1="56.2395" x2="142.82" y2="160.667" gradientUnits="userSpaceOnUse">
<stop stop-color="#FFD4B3"/>
<stop offset="1" stop-color="#FFDCC2"/>
</linearGradient>
<linearGradient id="paint2_linear_118_930" x1="140" y1="142.667" x2="140" y2="210.205" gradientUnits="userSpaceOnUse">
<stop stop-color="#806A6A"/>
<stop offset="1" stop-color="#665654"/>
</linearGradient>
<linearGradient id="paint3_linear_118_930" x1="145.322" y1="108" x2="145.322" y2="27.9983" gradientUnits="userSpaceOnUse">
<stop stop-color="#814A2B"/>
<stop offset="1" stop-color="#974A28"/>
</linearGradient>
<clipPath id="clip0_118_930">
<rect x="40" y="8" width="200" height="200" rx="100" fill="white"/>
</clipPath>
</defs>
</svg>
